<svg xmlns="http://www.w3.org/2000/svg" viewBox="0 0 140.44 140.44"><defs><style>.cls-1{fill:#f59c1b;}.cls-2{fill:#fff;}.cls-3{fill:#a5a5a5;}</style></defs><g id="Ebene_2" data-name="Ebene 2"><g id="Ebene_1-2" data-name="Ebene 1"><path class="cls-1" d="M70.22,9.19a61,61,0,1,1-61,61,61.09,61.09,0,0,1,61-61m0-7.19a68.22,68.22,0,1,0,68.22,68.22A68.22,68.22,0,0,0,70.22,2Z"/><path class="cls-1" d="M70.22,140.44a70.22,70.22,0,1,1,70.22-70.22A70.31,70.31,0,0,1,70.22,140.44Z"/><path class="cls-2" d="M81.59,19.23a36.88,36.88,0,1,0,36.88,36.88A36.88,36.88,0,0,0,81.59,19.23ZM74.82,82.84A19.47,19.47,0,1,1,94.29,63.37,19.47,19.47,0,0,1,74.82,82.84Z"/><circle class="cls-3" cx="74.82" cy="63.37" r="19.47"/></g></g></svg>