<?xml version="1.0" encoding="UTF-8" standalone="no"?>
<svg
   xmlns:dc="http://purl.org/dc/elements/1.1/"
   xmlns:cc="http://creativecommons.org/ns#"
   xmlns:rdf="http://www.w3.org/1999/02/22-rdf-syntax-ns#"
   xmlns:svg="http://www.w3.org/2000/svg"
   xmlns="http://www.w3.org/2000/svg"
   xmlns:sodipodi="http://sodipodi.sourceforge.net/DTD/sodipodi-0.dtd"
   xmlns:inkscape="http://www.inkscape.org/namespaces/inkscape"
   viewBox="0 0 140.44 140.44"
   version="1.1"
   id="svg16"
   sodipodi:docname="mask-icon.svg"
   inkscape:version="0.92.3 (2405546, 2018-03-11)">
  <metadata
     id="metadata20">
    <rdf:RDF>
      <cc:Work
         rdf:about="">
        <dc:format>image/svg+xml</dc:format>
        <dc:type
           rdf:resource="http://purl.org/dc/dcmitype/StillImage" />
        <dc:title></dc:title>
      </cc:Work>
    </rdf:RDF>
  </metadata>
  <sodipodi:namedview
     pagecolor="#ffffff"
     bordercolor="#666666"
     borderopacity="1"
     objecttolerance="10"
     gridtolerance="10"
     guidetolerance="10"
     inkscape:pageopacity="0"
     inkscape:pageshadow="2"
     inkscape:window-width="2560"
     inkscape:window-height="1390"
     id="namedview18"
     showgrid="false"
     inkscape:zoom="6.7217316"
     inkscape:cx="36.277833"
     inkscape:cy="77.637468"
     inkscape:window-x="0"
     inkscape:window-y="24"
     inkscape:window-maximized="1"
     inkscape:current-layer="Ebene_1-2" />
  <defs
     id="defs4">
    <style
       id="style2">.cls-1{fill:#f59c1b;}.cls-2{fill:#fff;}.cls-3{fill:#a5a5a5;}</style>
  </defs>
  <g
     data-name="Ebene 1"
     id="Ebene_1-2">
    <path
       style="fill:#f59c1b"
       inkscape:connector-curvature="0"
       id="path6"
       d="m 70.22,9.19 a 61,61 0 1 1 -61,61 61.09,61.09 0 0 1 61,-61 M 70.22,2 A 68.22,68.22 0 1 0 138.44,70.22 68.22,68.22 0 0 0 70.22,2 Z"
       class="cls-1" />
    <path
       style="fill:#020000;fill-opacity:1"
       inkscape:connector-curvature="0"
       id="path8"
       d="M 70.22,140.44 A 70.22,70.22 0 1 1 140.44,70.22 70.31,70.31 0 0 1 70.22,140.44 Z"
       class="cls-1" />
    <path
       style="fill:#ffffff"
       inkscape:connector-curvature="0"
       id="path10"
       d="M 81.59,19.23 A 36.88,36.88 0 1 0 118.47,56.11 36.88,36.88 0 0 0 81.59,19.23 Z M 74.82,82.84 A 19.47,19.47 0 1 1 94.29,63.37 19.47,19.47 0 0 1 74.82,82.84 Z"
       class="cls-2" />
    <circle
       style="fill:#030000;fill-opacity:1"
       id="circle12"
       r="19.469999"
       cy="63.369999"
       cx="74.82"
       class="cls-3" />
  </g>
</svg>
