<?xml version="1.0" encoding="UTF-8"?><svg xmlns="http://www.w3.org/2000/svg" xmlns:xlink="http://www.w3.org/1999/xlink" fill-opacity="1" color-rendering="auto" color-interpolation="auto" text-rendering="auto" stroke="black" stroke-linecap="square" width="901" stroke-miterlimit="10" shape-rendering="auto" stroke-opacity="1" fill="black" stroke-dasharray="none" font-weight="normal" stroke-width="1" height="325" font-family="'Dialog'" font-style="normal" stroke-linejoin="miter" font-size="12px" stroke-dashoffset="0" image-rendering="auto">
  <!--Generated by ySVG 2.6-->
  <defs id="genericDefs"/>
  <g>
    <defs id="defs1">
      <clipPath clipPathUnits="userSpaceOnUse" id="clipPath1">
        <path d="M0 0 L901 0 L901 325 L0 325 L0 0 Z"/>
      </clipPath>
      <clipPath clipPathUnits="userSpaceOnUse" id="clipPath2">
        <path d="M423 433 L1324 433 L1324 758 L423 758 L423 433 Z"/>
      </clipPath>
      <clipPath clipPathUnits="userSpaceOnUse" id="clipPath3">
        <path d="M-422.968 -234.791 L4972.7563 -234.791 L4972.7563 1711.5026 L-422.968 1711.5026 L-422.968 -234.791 Z"/>
      </clipPath>
      <clipPath clipPathUnits="userSpaceOnUse" id="clipPath4">
        <path d="M-4429.9893 -263.6899 L1073.6543 -263.6899 L1073.6543 1721.5312 L-4429.9893 1721.5312 L-4429.9893 -263.6899 Z"/>
      </clipPath>
    </defs>
    <g fill="white" text-rendering="geometricPrecision" shape-rendering="geometricPrecision" transform="translate(-423,-433)" stroke="white">
      <rect x="423" width="901" height="325" y="433" clip-path="url(#clipPath2)" stroke="none"/>
    </g>
    <g fill="white" text-rendering="geometricPrecision" shape-rendering="geometricPrecision" transform="matrix(1,0,0,1,-423,-433)" stroke="white">
      <rect x="1052.9743" width="256" height="151" y="592" clip-path="url(#clipPath2)" stroke="none"/>
    </g>
    <g text-rendering="geometricPrecision" stroke-miterlimit="1.45" shape-rendering="geometricPrecision" transform="matrix(1,0,0,1,-423,-433)" stroke-linecap="butt">
      <rect fill="none" x="1052.9743" width="256" height="151" y="592" clip-path="url(#clipPath2)"/>
      <text x="1148.6129" xml:space="preserve" y="605.1387" clip-path="url(#clipPath2)" font-family="sans-serif" stroke="none">Navigation</text>
    </g>
    <g fill="white" text-rendering="geometricPrecision" shape-rendering="geometricPrecision" transform="matrix(1,0,0,1,-423,-433)" stroke="white">
      <rect x="438.0257" width="178" height="101" y="448" clip-path="url(#clipPath2)" stroke="none"/>
    </g>
    <g text-rendering="geometricPrecision" stroke-miterlimit="1.45" shape-rendering="geometricPrecision" transform="matrix(1,0,0,1,-423,-433)" stroke-linecap="butt">
      <rect fill="none" x="438.0257" width="178" height="101" y="448" clip-path="url(#clipPath2)"/>
      <text x="501.1566" xml:space="preserve" y="461.1387" clip-path="url(#clipPath2)" font-family="sans-serif" stroke="none">Backend</text>
    </g>
    <g fill="white" text-rendering="geometricPrecision" shape-rendering="geometricPrecision" transform="matrix(1,0,0,1,-423,-433)" stroke="white">
      <rect x="1091.9743" width="178" height="101" y="448" clip-path="url(#clipPath2)" stroke="none"/>
    </g>
    <g text-rendering="geometricPrecision" stroke-miterlimit="1.45" shape-rendering="geometricPrecision" transform="matrix(1,0,0,1,-423,-433)" stroke-linecap="butt">
      <rect fill="none" x="1091.9743" width="178" height="101" y="448" clip-path="url(#clipPath2)"/>
      <text x="1169.2526" xml:space="preserve" y="461.1387" clip-path="url(#clipPath2)" font-family="sans-serif" stroke="none">App</text>
    </g>
    <g text-rendering="geometricPrecision" shape-rendering="geometricPrecision" transform="matrix(0.167,0,0,0.167,70.6289,39.2063)">
      <g clip-path="url(#clipPath3)">
        <svg opacity="1" writing-mode="lr-tb" shape-rendering="auto" stop-color="rgb(0, 0, 0)" glyph-orientation-horizontal="0deg" color-profile="auto" lighting-color="rgb(255, 255, 255)" color="rgb(0, 0, 0)" font-weight="400" alignment-baseline="auto" font-style="normal" color-interpolation-filters="linearrgb" text-anchor="start" stroke-linecap="butt" color-interpolation="srgb" font-variant="normal" word-spacing="normal" fill-opacity="1" text-rendering="auto" clip-path="none" text-decoration="none" letter-spacing="normal" viewBox="0 0 128 128" glyph-orientation-vertical="auto" display="inline" font-size-adjust="none" fill="rgb(0, 0, 0)" overflow="hidden" font-stretch="normal" stroke-dasharray="none" stroke-miterlimit="4" stop-opacity="1" color-rendering="auto" font-size="12" mask="none" direction="ltr" baseline-shift="baseline" pointer-events="visiblepainted" enable-background="accumulate" fill-rule="nonzero" image-rendering="auto" stroke-dashoffset="0" marker-end="none" clip="auto" cursor="auto" filter="none" stroke="none" visibility="visible" kerning="auto" stroke-width="1" font-family="&quot;Arial&quot;,&quot;Helvetica&quot;,sans-serif" flood-opacity="1" clip-rule="nonzero" src="none" unicode-bidi="normal" stroke-linejoin="miter" stroke-opacity="1" flood-color="rgb(0, 0, 0)" dominant-baseline="auto" marker-start="none" marker-mid="none">
          <path fill="#DF5052" d="M120.3 65.4c1.2 0 2.1-.9 2.1-2.1 0-.5-.2-1-.5-1.3-.1-.2-28-25.8-28-25.8l24.6 28.1c.3.7 1 1.1 1.8 1.1zm5.7 14.3l-.2-.2L65 24l55.7 60.6.2.2c.6.6 1.5 1 2.5 1 2 0 3.6-1.6 3.6-3.6 0-.9-.4-1.8-1-2.5zm-26.9 37.6l-88-81.5 81.1 88.5c.9 1 2.2 1.7 3.7 1.7 2.7 0 4.9-2.2 4.9-4.9 0-1.5-.6-2.9-1.7-3.8zM1 2l107.6 114.6.1.1c.9.9 2.1 1.4 3.4 1.4 2.7 0 4.9-2.2 4.9-4.9 0-1-.3-2-.9-2.8C115.8 109.9 1 2 1 2zm122.4 92.8l-88-81.5 81.1 88.5c.9 1 2.2 1.7 3.7 1.7 2.7 0 4.9-2.2 4.9-4.9 0-1.6-.7-2.9-1.7-3.8zm-42.5 24.8l-.2-.2-60.8-55.5 55.7 60.6.2.2c.6.6 1.5 1 2.5 1 2 0 3.6-1.6 3.6-3.6 0-1-.4-1.8-1-2.5zM34.1 91.7l24.6 28.1c.4.6 1 1.1 1.8 1.1 1.2 0 2.1-.9 2.1-2.1 0-.5-.2-1-.5-1.3-.2-.1-28-25.8-28-25.8z"/>
        </svg>
      </g>
    </g>
    <g text-rendering="geometricPrecision" shape-rendering="geometricPrecision" transform="matrix(0.1637,0,0,0.1637,725.2323,43.1686)">
      <g clip-path="url(#clipPath4)">
        <svg opacity="1" writing-mode="lr-tb" shape-rendering="auto" stop-color="rgb(0, 0, 0)" glyph-orientation-horizontal="0deg" color-profile="auto" lighting-color="rgb(255, 255, 255)" color="rgb(0, 0, 0)" font-weight="400" alignment-baseline="auto" font-style="normal" color-interpolation-filters="linearrgb" text-anchor="start" stroke-linecap="butt" color-interpolation="srgb" font-variant="normal" word-spacing="normal" fill-opacity="1" text-rendering="auto" clip-path="none" text-decoration="none" letter-spacing="normal" viewBox="0 0 128 128" glyph-orientation-vertical="auto" display="inline" font-size-adjust="none" fill="rgb(0, 0, 0)" overflow="hidden" font-stretch="normal" stroke-dasharray="none" stroke-miterlimit="4" stop-opacity="1" color-rendering="auto" font-size="12" mask="none" direction="ltr" baseline-shift="baseline" pointer-events="visiblepainted" enable-background="accumulate" fill-rule="nonzero" image-rendering="auto" stroke-dashoffset="0" marker-end="none" clip="auto" cursor="auto" filter="none" stroke="none" visibility="visible" kerning="auto" stroke-width="1" font-family="&quot;Arial&quot;,&quot;Helvetica&quot;,sans-serif" flood-opacity="1" clip-rule="nonzero" src="none" unicode-bidi="normal" stroke-linejoin="miter" stroke-opacity="1" flood-color="rgb(0, 0, 0)" dominant-baseline="auto" marker-start="none" marker-mid="none">
          <g fill="#61DAFB">
            <circle cx="64" r="11.4" cy="64"/>
            <path d="M107.3 45.2c-2.2-.8-4.5-1.6-6.9-2.3.6-2.4 1.1-4.8 1.5-7.1 2.1-13.2-.2-22.5-6.6-26.1-1.9-1.1-4-1.6-6.4-1.6-7 0-15.9 5.2-24.9 13.9-9-8.7-17.9-13.9-24.9-13.9-2.4 0-4.5.5-6.4 1.6-6.4 3.7-8.7 13-6.6 26.1.4 2.3.9 4.7 1.5 7.1-2.4.7-4.7 1.4-6.9 2.3C8.2 50 1.4 56.6 1.4 64s6.9 14 19.3 18.8c2.2.8 4.5 1.6 6.9 2.3-.6 2.4-1.1 4.8-1.5 7.1-2.1 13.2.2 22.5 6.6 26.1 1.9 1.1 4 1.6 6.4 1.6 7.1 0 16-5.2 24.9-13.9 9 8.7 17.9 13.9 24.9 13.9 2.4 0 4.5-.5 6.4-1.6 6.4-3.7 8.7-13 6.6-26.1-.4-2.3-.9-4.7-1.5-7.1 2.4-.7 4.7-1.4 6.9-2.3 12.5-4.8 19.3-11.4 19.3-18.8s-6.8-14-19.3-18.8zM92.5 14.7c4.1 2.4 5.5 9.8 3.8 20.3-.3 2.1-.8 4.3-1.4 6.6-5.2-1.2-10.7-2-16.5-2.5-3.4-4.8-6.9-9.1-10.4-13 7.4-7.3 14.9-12.3 21-12.3 1.3 0 2.5.3 3.5.9zM81.3 74c-1.8 3.2-3.9 6.4-6.1 9.6-3.7.3-7.4.4-11.2.4-3.9 0-7.6-.1-11.2-.4-2.2-3.2-4.2-6.4-6-9.6-1.9-3.3-3.7-6.7-5.3-10 1.6-3.3 3.4-6.7 5.3-10 1.8-3.2 3.9-6.4 6.1-9.6 3.7-.3 7.4-.4 11.2-.4 3.9 0 7.6.1 11.2.4 2.2 3.2 4.2 6.4 6 9.6 1.9 3.3 3.7 6.7 5.3 10-1.7 3.3-3.4 6.6-5.3 10zm8.3-3.3c1.5 3.5 2.7 6.9 3.8 10.3-3.4.8-7 1.4-10.8 1.9 1.2-1.9 2.5-3.9 3.6-6 1.2-2.1 2.3-4.2 3.4-6.2zM64 97.8c-2.4-2.6-4.7-5.4-6.9-8.3 2.3.1 4.6.2 6.9.2 2.3 0 4.6-.1 6.9-.2-2.2 2.9-4.5 5.7-6.9 8.3zm-18.6-15c-3.8-.5-7.4-1.1-10.8-1.9 1.1-3.3 2.3-6.8 3.8-10.3 1.1 2 2.2 4.1 3.4 6.1 1.2 2.2 2.4 4.1 3.6 6.1zm-7-25.5c-1.5-3.5-2.7-6.9-3.8-10.3 3.4-.8 7-1.4 10.8-1.9-1.2 1.9-2.5 3.9-3.6 6-1.2 2.1-2.3 4.2-3.4 6.2zM64 30.2c2.4 2.6 4.7 5.4 6.9 8.3-2.3-.1-4.6-.2-6.9-.2-2.3 0-4.6.1-6.9.2 2.2-2.9 4.5-5.7 6.9-8.3zm22.2 21l-3.6-6c3.8.5 7.4 1.1 10.8 1.9-1.1 3.3-2.3 6.8-3.8 10.3-1.1-2.1-2.2-4.2-3.4-6.2zM31.7 35c-1.7-10.5-.3-17.9 3.8-20.3 1-.6 2.2-.9 3.5-.9 6 0 13.5 4.9 21 12.3-3.5 3.8-7 8.2-10.4 13-5.8.5-11.3 1.4-16.5 2.5-.6-2.3-1-4.5-1.4-6.6zM7 64c0-4.7 5.7-9.7 15.7-13.4 2-.8 4.2-1.5 6.4-2.1 1.6 5 3.6 10.3 6 15.6-2.4 5.3-4.5 10.5-6 15.5C15.3 75.6 7 69.6 7 64zm28.5 49.3c-4.1-2.4-5.5-9.8-3.8-20.3.3-2.1.8-4.3 1.4-6.6 5.2 1.2 10.7 2 16.5 2.5 3.4 4.8 6.9 9.1 10.4 13-7.4 7.3-14.9 12.3-21 12.3-1.3 0-2.5-.3-3.5-.9zM96.3 93c1.7 10.5.3 17.9-3.8 20.3-1 .6-2.2.9-3.5.9-6 0-13.5-4.9-21-12.3 3.5-3.8 7-8.2 10.4-13 5.8-.5 11.3-1.4 16.5-2.5.6 2.3 1 4.5 1.4 6.6zm9-15.6c-2 .8-4.2 1.5-6.4 2.1-1.6-5-3.6-10.3-6-15.6 2.4-5.3 4.5-10.5 6-15.5 13.8 4 22.1 10 22.1 15.6 0 4.7-5.8 9.7-15.7 13.4z"/>
          </g>
        </svg>
      </g>
    </g>
    <g fill="white" text-rendering="geometricPrecision" shape-rendering="geometricPrecision" transform="matrix(1,0,0,1,-423,-433)" stroke="white">
      <rect x="765" width="178" height="279" y="448" clip-path="url(#clipPath2)" stroke="none"/>
    </g>
    <g text-rendering="geometricPrecision" stroke-miterlimit="1.45" shape-rendering="geometricPrecision" transform="matrix(1,0,0,1,-423,-433)" stroke-linecap="butt">
      <rect fill="none" x="765" width="178" height="279" y="448" clip-path="url(#clipPath2)"/>
      <text x="804.8633" xml:space="preserve" y="461.1387" clip-path="url(#clipPath2)" font-family="sans-serif" stroke="none">@meteorrn/core</text>
    </g>
    <g fill="white" text-rendering="geometricPrecision" shape-rendering="geometricPrecision" transform="matrix(1,0,0,1,-423,-433)" stroke="white">
      <rect x="438.0257" width="178" height="101" y="625" clip-path="url(#clipPath2)" stroke="none"/>
    </g>
    <g text-rendering="geometricPrecision" stroke-miterlimit="1.45" shape-rendering="geometricPrecision" transform="matrix(1,0,0,1,-423,-433)" stroke-linecap="butt">
      <rect fill="none" x="438.0257" width="178" height="101" y="625" clip-path="url(#clipPath2)"/>
      <text x="469.2406" xml:space="preserve" y="638.1387" clip-path="url(#clipPath2)" font-family="sans-serif" stroke="none">accounts-password</text>
    </g>
    <g fill="white" text-rendering="geometricPrecision" shape-rendering="geometricPrecision" transform="matrix(1,0,0,1,-423,-433)" stroke="white">
      <rect x="1091.9743" width="178" height="101" y="626" clip-path="url(#clipPath2)" stroke="none"/>
    </g>
    <g text-rendering="geometricPrecision" stroke-miterlimit="1.45" shape-rendering="geometricPrecision" transform="matrix(1,0,0,1,-423,-433)" stroke-linecap="butt">
      <rect fill="none" x="1091.9743" width="178" height="101" y="626" clip-path="url(#clipPath2)"/>
      <text x="1143.3014" xml:space="preserve" y="639.1387" clip-path="url(#clipPath2)" font-family="sans-serif" stroke="none">AuthContext</text>
      <text x="1143.3014" xml:space="preserve" y="653.1074" clip-path="url(#clipPath2)" font-family="sans-serif" stroke="none"> </text>
      <text x="1143.3014" xml:space="preserve" y="667.0762" clip-path="url(#clipPath2)" font-family="sans-serif" stroke="none">signIn</text>
      <text x="1143.3014" xml:space="preserve" y="681.0449" clip-path="url(#clipPath2)" font-family="sans-serif" stroke="none">signUp</text>
      <text x="1143.3014" xml:space="preserve" y="695.0137" clip-path="url(#clipPath2)" font-family="sans-serif" stroke="none">signOut</text>
      <path fill="none" d="M1180.9742 549 L1180.9742 592" clip-path="url(#clipPath2)"/>
      <path fill="none" d="M942.9727 498.5 L1083.9742 498.5" clip-path="url(#clipPath2)"/>
      <path d="M1091.9742 498.5 L1079.9742 493.5 L1082.9742 498.5 L1079.9742 503.5 Z" clip-path="url(#clipPath2)" stroke="none"/>
      <text x="1004.6287" xml:space="preserve" y="464.3071" clip-path="url(#clipPath2)" font-family="sans-serif" stroke="none">DDP</text>
      <path fill="none" d="M764.9601 498.5 L624.0257 498.5" clip-path="url(#clipPath2)"/>
      <path d="M616.0257 498.5 L628.0257 503.5 L625.0257 498.5 L628.0257 493.5 Z" clip-path="url(#clipPath2)" stroke="none"/>
      <text x="677.6545" xml:space="preserve" y="472.6543" clip-path="url(#clipPath2)" font-family="sans-serif" stroke="none">DDP</text>
      <path fill="none" d="M764.9715 675.5 L624.0257 675.5" clip-path="url(#clipPath2)"/>
      <path d="M616.0257 675.5 L628.0257 680.5 L625.0257 675.5 L628.0257 670.5 Z" clip-path="url(#clipPath2)" stroke="none"/>
      <path fill="none" d="M527.0257 549 L527.0257 625" clip-path="url(#clipPath2)"/>
      <path fill="none" d="M1083.9742 676.5 L943.0264 676.5" clip-path="url(#clipPath2)"/>
      <path d="M1091.9742 676.5 L1079.9742 671.5 L1082.9742 676.5 L1079.9742 681.5 Z" clip-path="url(#clipPath2)" stroke="none"/>
    </g>
  </g>
</svg>
